<svg width="720" height="80" viewBox="0 0 720 80" fill="none" xmlns="http://www.w3.org/2000/svg">
<path d="M16 0H0V16H16V0Z" fill="white"/>
<path d="M32 0H16V16H32V0Z" fill="white"/>
<path d="M48 0H32V16H48V0Z" fill="white"/>
<path d="M16 16H0V32H16V16Z" fill="white"/>
<path d="M64 16H48V32H64V16Z" fill="white"/>
<path d="M16 32H0V48H16V32Z" fill="white"/>
<path d="M32 32H16V48H32V32Z" fill="white"/>
<path d="M48 32H32V48H48V32Z" fill="white"/>
<path d="M16 48H0V64H16V48Z" fill="white"/>
<path d="M16 64H0V80H16V64Z" fill="white"/>
<path d="M112 0H96V16H112V0Z" fill="white"/>
<path d="M128 0H112V16H128V0Z" fill="white"/>
<path d="M96 16H80V32H96V16Z" fill="white"/>
<path d="M144 16H128V32H144V16Z" fill="white"/>
<path d="M96 32H80V48H96V32Z" fill="white"/>
<path d="M112 32H96V48H112V32Z" fill="white"/>
<path d="M128 32H112V48H128V32Z" fill="white"/>
<path d="M144 32H128V48H144V32Z" fill="white"/>
<path d="M96 48H80V64H96V48Z" fill="white"/>
<path d="M144 48H128V64H144V48Z" fill="white"/>
<path d="M96 64H80V80H96V64Z" fill="white"/>
<path d="M144 64H128V80H144V64Z" fill="white"/>
<path d="M192 0H176V16H192V0Z" fill="white"/>
<path d="M208 0H192V16H208V0Z" fill="white"/>
<path d="M224 0H208V16H224V0Z" fill="white"/>
<path d="M176 16H160V32H176V16Z" fill="white"/>
<path d="M192 32H176V48H192V32Z" fill="white"/>
<path d="M208 32H192V48H208V32Z" fill="white"/>
<path d="M224 48H208V64H224V48Z" fill="white"/>
<path d="M176 64H160V80H176V64Z" fill="white"/>
<path d="M192 64H176V80H192V64Z" fill="white"/>
<path d="M208 64H192V80H208V64Z" fill="white"/>
<path d="M256 0H240V16H256V0Z" fill="white"/>
<path d="M272 0H256V16H272V0Z" fill="white"/>
<path d="M288 0H272V16H288V0Z" fill="white"/>
<path d="M304 0H288V16H304V0Z" fill="white"/>
<path d="M272 16H256V32H272V16Z" fill="white"/>
<path d="M272 32H256V48H272V32Z" fill="white"/>
<path d="M272 48H256V64H272V48Z" fill="white"/>
<path d="M272 64H256V80H272V64Z" fill="white"/>
<path d="M336 0H320V16H336V0Z" fill="white"/>
<path d="M352 0H336V16H352V0Z" fill="white"/>
<path d="M368 0H352V16H368V0Z" fill="white"/>
<path d="M384 0H368V16H384V0Z" fill="white"/>
<path d="M336 16H320V32H336V16Z" fill="white"/>
<path d="M336 32H320V48H336V32Z" fill="white"/>
<path d="M352 32H336V48H352V32Z" fill="white"/>
<path d="M368 32H352V48H368V32Z" fill="white"/>
<path d="M336 48H320V64H336V48Z" fill="white"/>
<path d="M336 64H320V80H336V64Z" fill="white"/>
<path d="M352 64H336V80H352V64Z" fill="white"/>
<path d="M368 64H352V80H368V64Z" fill="white"/>
<path d="M384 64H368V80H384V64Z" fill="white"/>
<path d="M416 0H400V16H416V0Z" fill="white"/>
<path d="M416 16H400V32H416V16Z" fill="white"/>
<path d="M416 32H400V48H416V32Z" fill="white"/>
<path d="M416 48H400V64H416V48Z" fill="white"/>
<path d="M416 64H400V80H416V64Z" fill="white"/>
<path d="M432 64H416V80H432V64Z" fill="white"/>
<path d="M448 64H432V80H448V64Z" fill="white"/>
<path d="M464 64H448V80H464V64Z" fill="white"/>
<path d="M512 0H496V16H512V0Z" fill="white"/>
<path d="M528 0H512V16H528V0Z" fill="white"/>
<path d="M544 0H528V16H544V0Z" fill="white"/>
<path d="M496 16H480V32H496V16Z" fill="white"/>
<path d="M512 32H496V48H512V32Z" fill="white"/>
<path d="M528 32H512V48H528V32Z" fill="white"/>
<path d="M544 48H528V64H544V48Z" fill="white"/>
<path d="M496 64H480V80H496V64Z" fill="white"/>
<path d="M512 64H496V80H512V64Z" fill="white"/>
<path d="M528 64H512V80H528V64Z" fill="white"/>
<path d="M576 0H560V16H576V0Z" fill="white"/>
<path d="M592 0H576V16H592V0Z" fill="white"/>
<path d="M608 0H592V16H608V0Z" fill="white"/>
<path d="M576 16H560V32H576V16Z" fill="white"/>
<path d="M624 16H608V32H624V16Z" fill="white"/>
<path d="M576 32H560V48H576V32Z" fill="white"/>
<path d="M624 32H608V48H624V32Z" fill="white"/>
<path d="M576 48H560V64H576V48Z" fill="white"/>
<path d="M624 48H608V64H624V48Z" fill="white"/>
<path d="M576 64H560V80H576V64Z" fill="white"/>
<path d="M592 64H576V80H592V64Z" fill="white"/>
<path d="M608 64H592V80H608V64Z" fill="white"/>
<path d="M656 0H640V16H656V0Z" fill="white"/>
<path d="M672 0H656V16H672V0Z" fill="white"/>
<path d="M688 0H672V16H688V0Z" fill="white"/>
<path d="M656 16H640V32H656V16Z" fill="white"/>
<path d="M704 16H688V32H704V16Z" fill="white"/>
<path d="M656 32H640V48H656V32Z" fill="white"/>
<path d="M704 32H688V48H704V32Z" fill="white"/>
<path d="M656 48H640V64H656V48Z" fill="white"/>
<path d="M704 48H688V64H704V48Z" fill="white"/>
<path d="M656 64H640V80H656V64Z" fill="white"/>
<path d="M672 64H656V80H672V64Z" fill="white"/>
<path d="M688 64H672V80H688V64Z" fill="white"/>
</svg>
